# xmcd
#
# Track frame offsets: 
#        150
#        13466
#        28496
#        41428
#        56534
#        69550
#        86378
#        101215
#        112416
#        126879
#        144256
#        161583
#        174773
#        189010
#        204663
#        216952
#        229934
#
# Disc length: 3248 seconds
#
# Revision: 1
# Processed by: cddbd v1.5.1PL0 Copyright (c) Steve Scherf et al.
# Submitted via: ExactAudioCopy v0.95a5
#
DISCID=f50cae11
DTITLE=Gilberto and Gilmar - Show 30 anos de carreira
DYEAR=2003
DGENRE=Sertanejo
TTITLE0=Só Mais Uma Vez
TTITLE1=Pout-Porri de Polca
TTITLE2=Música da Saudade
TTITLE3=Pout-Porri de Rancheira
TTITLE4=Capa de Revista
TTITLE5=Tá Ruim Mais Tá Bom
TTITLE6=Luz do Amanhecer
TTITLE7=Assino Com X
TTITLE8=Mais Que Paixão
TTITLE9=Pout-Porri de Bolero
TTITLE10=Praia de Solidão
TTITLE11=Paixão
TTITLE12=Palavras de Amor
TTITLE13=Quebrando Tudo
TTITLE14=Fome de Amor
TTITLE15=Tá Embolado o Meio de Campo
TTITLE16=Arrepia Arrepia
EXTD=
EXTT0=
EXTT1=
EXTT2=
EXTT3=
EXTT4=
EXTT5=
EXTT6=
EXTT7=
EXTT8=
EXTT9=
EXTT10=
EXTT11=
EXTT12=
EXTT13=
EXTT14=
EXTT15=
EXTT16=
PLAYORDER=
